<svg width="137" height="45" viewBox="0 0 137 45" fill="none" xmlns="http://www.w3.org/2000/svg">
<g filter="url(#filter0_f_845_257)">
<circle cx="20.5612" cy="22.5612" r="18.5612" fill="#501859"/>
</g>
<g filter="url(#filter1_f_845_257)">
<path fill-rule="evenodd" clip-rule="evenodd" d="M20.4051 33.5065H11.8583H11.7371L11.8583 11.5636H29.255V29.0816H20.4051V33.5065ZM20.4657 24.7173L16.1014 29.021V23.9899L24.8301 16.0492V24.7173H20.4657ZM23.7222 16.6554H17.1489V22.5958L23.7222 16.6554Z" fill="url(#paint0_linear_845_257)"/>
</g>
<g filter="url(#filter2_f_845_257)">
<path fill-rule="evenodd" clip-rule="evenodd" d="M37.9922 22.5613C37.9922 32.1882 30.1881 39.9924 20.5612 39.9924C10.9343 39.9924 3.13013 32.1882 3.13013 22.5613C3.13013 12.9344 10.9343 5.13025 20.5612 5.13025C30.1881 5.13025 37.9922 12.9344 37.9922 22.5613ZM29.2549 28.2993H29.2549V29.0383L30.2112 28.2993V10.7813H12.8237H12.8145L12.8144 10.7893L11.9179 11.5637H11.8582L11.7369 33.5066H11.8582H20.405V32.7243H20.4106L20.4158 33.5345L21.3437 32.7331V32.7243H21.3613V29.0816H29.2549V28.2993ZM24.8299 16.137L17.0578 23.2075V28.0778L20.4656 24.7174H20.6286L21.4221 23.9349H24.8299V16.137ZM18.1051 16.6555H23.7221L18.1051 21.7316V16.6555Z" fill="url(#paint1_linear_845_257)"/>
</g>
<path d="M49.1969 18.6894V23.7037H50.982C51.7174 23.102 52.0851 22.2195 52.0851 21.0562C52.0851 20.5614 51.9848 20.0934 51.7843 19.6521C51.5971 19.2109 51.3697 18.89 51.1023 18.6894H49.1969ZM46.4891 30.3226V16.2825H51.9247C52.8339 16.6837 53.5493 17.2988 54.0708 18.1278C54.6057 18.9568 54.8731 19.9263 54.8731 21.0361C54.8731 22.1326 54.599 23.1488 54.0507 24.0848C53.5025 25.0208 52.6935 25.6827 51.6238 26.0705H49.1969V30.3226H46.4891ZM59.4103 27.996H61.0951C61.3893 27.6751 61.5965 27.3542 61.7169 27.0332C61.8506 26.6989 61.9174 26.2109 61.9174 25.5691V16.2825H64.6653V24.5662C64.6653 25.2481 64.6452 25.783 64.6051 26.1708C64.5784 26.5452 64.4981 27.0065 64.3644 27.5547C64.1371 28.5308 63.5086 29.4535 62.479 30.3226H58.0263C56.9967 29.4802 56.3682 28.5576 56.1409 27.5547C55.9404 26.7391 55.8401 25.7429 55.8401 24.5662V16.2825H58.5879V25.5691C58.5879 26.2109 58.6481 26.6989 58.7684 27.0332C58.9022 27.3542 59.1161 27.6751 59.4103 27.996ZM66.0967 16.2825H71.432C72.2744 16.5633 72.9897 17.0848 73.5781 17.847C74.1798 18.5958 74.4807 19.5184 74.4807 20.6149C74.4807 22.4067 73.772 23.7238 72.3546 24.5662L74.3804 30.3226H71.5724L69.8675 25.208H68.8045V30.3226H66.0967V16.2825ZM68.8045 18.6894V22.9616H70.5294C70.7567 22.9081 71.0041 22.6808 71.2715 22.2797C71.5523 21.8651 71.6927 21.3838 71.6927 20.8355C71.6927 20.2873 71.5724 19.8059 71.3317 19.3914C71.1044 18.9769 70.877 18.7429 70.6497 18.6894H68.8045ZM78.2361 18.6894V23.7037H80.0212C80.7566 23.102 81.1243 22.2195 81.1243 21.0562C81.1243 20.5614 81.024 20.0934 80.8235 19.6521C80.6363 19.2109 80.409 18.89 80.1415 18.6894H78.2361ZM75.5283 30.3226V16.2825H80.9639C81.8731 16.6837 82.5885 17.2988 83.11 18.1278C83.6449 18.9568 83.9123 19.9263 83.9123 21.0361C83.9123 22.1326 83.6382 23.1488 83.09 24.0848C82.5417 25.0208 81.7327 25.6827 80.663 26.0705H78.2361V30.3226H75.5283ZM84.9796 30.3226V16.2825H87.7274V27.996H91.8993V30.3226H84.9796ZM92.8638 30.3226V16.2825H100.064V18.6894H95.6117V22.039H99.583V24.3656H95.6117V27.996H100.145V30.3226H92.8638ZM107.999 27.996H111.529V30.3226H106.434C105.552 29.4936 104.883 28.4439 104.429 27.1736C103.974 25.9033 103.747 24.5996 103.747 23.2625C103.747 21.9119 104.001 20.6149 104.509 19.3713C105.017 18.1278 105.772 17.0982 106.775 16.2825H111.529V18.6894H107.999C107.638 19.1039 107.324 19.7725 107.056 20.6951C106.802 21.6178 106.675 22.5003 106.675 23.3427C106.675 24.1851 106.802 25.0676 107.056 25.9903C107.324 26.9129 107.638 27.5815 107.999 27.996ZM118.629 16.2825C119.565 17.0447 120.26 18.0676 120.714 19.3513C121.169 20.635 121.396 21.9587 121.396 23.3226C121.396 24.6732 121.176 25.9568 120.735 27.1736C120.293 28.3904 119.591 29.4401 118.629 30.3226H114.497C113.534 29.4401 112.832 28.3904 112.391 27.1736C111.949 25.9568 111.729 24.6732 111.729 23.3226C111.729 21.9587 111.956 20.635 112.411 19.3513C112.865 18.0676 113.561 17.0447 114.497 16.2825H118.629ZM115.841 27.996H117.285C117.619 27.6082 117.9 26.9797 118.127 26.1106C118.368 25.2281 118.488 24.2988 118.488 23.3226C118.488 22.3465 118.374 21.4306 118.147 20.5748C117.92 19.7056 117.639 19.0772 117.305 18.6894H115.841C115.506 19.0772 115.219 19.7056 114.978 20.5748C114.751 21.4306 114.637 22.3465 114.637 23.3226C114.637 24.2988 114.751 25.2281 114.978 26.1106C115.219 26.9797 115.506 27.6082 115.841 27.996ZM122.56 30.3226V16.2825H125.307V30.3226H122.56ZM133.098 30.3226L129.347 22.5605L129.247 22.6006L129.367 24.9673V30.3226H126.84V16.2825H128.866L132.556 24.3456L132.656 24.3054L132.436 21.8384V16.2825H134.963V30.3226H133.098Z" fill="white"/>
<defs>
<filter id="filter0_f_845_257" x="1.7032" y="3.7032" width="37.7162" height="37.716" filterUnits="userSpaceOnUse" color-interpolation-filters="sRGB">
<feFlood flood-opacity="0" result="BackgroundImageFix"/>
<feBlend mode="normal" in="SourceGraphic" in2="BackgroundImageFix" result="shape"/>
<feGaussianBlur stdDeviation="0.1484" result="effect1_foregroundBlur_845_257"/>
</filter>
<filter id="filter1_f_845_257" x="0.532862" y="0.3594" width="39.9265" height="44.3514" filterUnits="userSpaceOnUse" color-interpolation-filters="sRGB">
<feFlood flood-opacity="0" result="BackgroundImageFix"/>
<feBlend mode="normal" in="SourceGraphic" in2="BackgroundImageFix" result="shape"/>
<feGaussianBlur stdDeviation="5.6021" result="effect1_foregroundBlur_845_257"/>
</filter>
<filter id="filter2_f_845_257" x="2.83333" y="4.83345" width="35.4557" height="35.4557" filterUnits="userSpaceOnUse" color-interpolation-filters="sRGB">
<feFlood flood-opacity="0" result="BackgroundImageFix"/>
<feBlend mode="normal" in="SourceGraphic" in2="BackgroundImageFix" result="shape"/>
<feGaussianBlur stdDeviation="0.1484" result="effect1_foregroundBlur_845_257"/>
</filter>
<linearGradient id="paint0_linear_845_257" x1="20.4961" y1="11.5636" x2="20.4961" y2="33.5065" gradientUnits="userSpaceOnUse">
<stop stop-color="#DF13FF"/>
<stop offset="0.472434" stop-color="white"/>
<stop offset="1" stop-color="#E017FF"/>
</linearGradient>
<linearGradient id="paint1_linear_845_257" x1="20.5612" y1="5.13025" x2="20.5612" y2="39.9924" gradientUnits="userSpaceOnUse">
<stop stop-color="#400F47"/>
<stop offset="1" stop-color="#150617"/>
</linearGradient>
</defs>
</svg>
